<svg width="17" height="16" viewBox="0 0 17 16" fill="none" xmlns="http://www.w3.org/2000/svg">
<path d="M8.00002 14.6667H1.99999C1.63198 14.6667 1.33334 14.368 1.33334 14V2.00002C1.33334 1.63202 1.63202 1.33337 1.99999 1.33337H8.00002C8.36868 1.33337 8.66667 1.03538 8.66667 0.666715C8.66667 0.298053 8.36868 0 8.00002 0H1.99999C0.897325 0 0 0.897356 0 2.00002V14C0 15.1027 0.897325 16 1.99999 16H8.00002C8.36868 16 8.66667 15.702 8.66667 15.3333C8.66667 14.9647 8.36868 14.6667 8.00002 14.6667Z" fill="#006DEA"/>
<path d="M15.8548 7.19194L11.8015 3.19193C11.5401 2.93326 11.1175 2.93661 10.8588 3.19861C10.6002 3.4606 10.6028 3.8826 10.8655 4.14127L13.7622 6.99993H6.00015C5.63149 6.99993 5.3335 7.29792 5.3335 7.66658C5.3335 8.03524 5.63149 8.33326 6.00015 8.33326H13.7622L10.8655 11.1919C10.6028 11.4506 10.6008 11.8726 10.8588 12.1346C10.9895 12.2666 11.1615 12.3332 11.3335 12.3332C11.5028 12.3332 11.6722 12.2692 11.8015 12.1412L15.8548 8.14122C15.9815 8.0159 16.0535 7.8452 16.0535 7.66655C16.0535 7.48795 15.9822 7.31795 15.8548 7.19194Z" fill="#006DEA"/>
</svg>
