<svg width="18" height="18" viewBox="0 0 18 18" fill="none" xmlns="http://www.w3.org/2000/svg">
<path d="M7.92679 0C3.55607 0 0 3.55607 0 7.92679C0 12.2977 3.55607 15.8536 7.92679 15.8536C12.2977 15.8536 15.8536 12.2977 15.8536 7.92679C15.8536 3.55607 12.2977 0 7.92679 0ZM7.92679 14.3902C4.36291 14.3902 1.46341 11.4907 1.46341 7.92682C1.46341 4.36294 4.36291 1.46341 7.92679 1.46341C11.4907 1.46341 14.3902 4.36291 14.3902 7.92679C14.3902 11.4907 11.4907 14.3902 7.92679 14.3902Z" fill="#F2F2F2"/>
<path d="M17.7857 16.7509L13.5906 12.5558C13.3047 12.27 12.8418 12.27 12.5559 12.5558C12.2701 12.8414 12.2701 13.3049 12.5559 13.5905L16.7511 17.7856C16.894 17.9285 17.0811 18 17.2684 18C17.4555 18 17.6428 17.9285 17.7857 17.7856C18.0716 17.5 18.0716 17.0365 17.7857 16.7509Z" fill="#F2F2F2"/>
</svg>
