<?xml version="1.0" standalone="no"?>
<!DOCTYPE svg PUBLIC "-//W3C//DTD SVG 20010904//EN"
 "http://www.w3.org/TR/2001/REC-SVG-20010904/DTD/svg10.dtd">
<svg version="1.0" xmlns="http://www.w3.org/2000/svg"
 width="700.000000pt" height="700.000000pt" viewBox="0 0 700.000000 700.000000"
 preserveAspectRatio="xMidYMid meet">
<metadata>
Created by potrace 1.11, written by Peter Selinger 2001-2013
</metadata>
<g transform="translate(0.000000,700.000000) scale(0.100000,-0.100000)"
fill="#000000" stroke="none">
<path d="M3286 6993 c-2 -2 -35 -6 -72 -8 -114 -5 -209 -17 -212 -25 -2 -4
-11 -6 -20 -4 -14 4 -142 -17 -192 -30 -8 -3 -25 -5 -38 -5 -15 -1 -21 -5 -16
-13 4 -7 3 -8 -5 -4 -13 8 -122 -14 -116 -23 2 -4 -9 -7 -23 -6 -18 0 -26 -5
-24 -14 3 -12 0 -12 -12 -2 -11 9 -21 9 -48 -2 -18 -8 -35 -14 -38 -14 -8 0
-53 -14 -75 -22 -11 -5 -78 -30 -149 -56 -125 -45 -331 -141 -446 -206 -156
-88 -190 -111 -184 -121 4 -7 2 -8 -4 -4 -11 7 -133 -68 -140 -86 -2 -4 -8 -8
-13 -8 -5 0 -17 -6 -26 -14 -10 -8 -56 -44 -102 -81 -517 -403 -939 -999
-1146 -1619 -127 -380 -181 -715 -182 -1116 -1 -317 25 -542 92 -826 261
-1085 1030 -1987 2060 -2416 334 -138 680 -223 1055 -257 97 -9 556 -7 620 3
19 3 55 7 80 10 96 10 191 26 364 61 58 12 224 58 306 85 592 195 1123 541
1530 1000 36 40 70 78 76 84 24 26 176 229 221 297 80 119 175 285 241 421 34
70 62 130 62 133 0 3 9 24 20 48 91 197 199 591 235 857 3 25 8 56 10 70 13
87 19 235 19 435 -1 213 -3 264 -20 400 -4 28 -6 58 -6 68 0 9 -2 16 -6 13 -4
-2 -8 15 -8 38 -1 22 -4 55 -7 71 -14 75 -19 96 -38 185 -11 52 -24 106 -29
120 -10 32 -44 143 -45 150 -2 11 -27 86 -35 105 -5 11 -19 48 -31 83 -12 34
-26 62 -31 62 -5 0 -7 4 -3 9 7 12 -15 61 -27 61 -5 0 -7 4 -3 10 6 9 -102
235 -155 325 -16 28 -42 71 -56 97 -15 26 -30 45 -34 43 -4 -3 -7 3 -6 13 0 9
-5 16 -12 14 -8 -1 -11 2 -7 7 5 9 -54 106 -73 121 -4 3 -14 17 -22 31 -8 15
-26 41 -40 59 -81 103 -117 148 -142 172 -15 14 -28 29 -28 33 0 25 -313 326
-454 435 -10 8 -33 27 -51 43 -18 15 -38 27 -44 27 -6 0 -11 3 -11 8 0 4 -25
23 -55 42 -30 19 -55 38 -55 43 0 4 -4 7 -10 7 -5 0 -43 23 -85 51 -42 28 -80
47 -87 43 -6 -4 -8 -3 -5 3 5 8 -57 49 -72 47 -3 0 -12 6 -19 13 -8 7 -17 11
-22 8 -4 -3 -11 2 -14 11 -3 8 -10 13 -15 10 -5 -4 -11 -2 -13 2 -1 5 -34 23
-73 41 -38 18 -87 41 -107 52 -21 11 -40 20 -43 20 -4 0 -49 17 -110 44 -70
30 -142 55 -165 57 -14 2 -27 5 -30 8 -11 12 -110 41 -119 36 -5 -3 -11 -2
-13 4 -2 6 -12 12 -23 14 -11 2 -39 9 -63 15 -23 7 -47 9 -52 6 -6 -3 -10 -1
-10 6 0 6 -8 9 -20 6 -11 -3 -20 -2 -20 2 0 10 -177 44 -194 38 -8 -3 -17 -3
-20 1 -4 3 -12 7 -19 8 -101 21 -236 33 -455 39 -110 3 -141 1 -135 -8 5 -9 4
-9 -8 0 -18 14 -99 13 -99 -2 0 -6 -3 -6 -8 1 -7 10 -38 15 -46 7z m281 -118
c0 -8 -4 -12 -9 -9 -5 3 -6 10 -3 15 9 13 12 11 12 -6z m-897 -29 c0 -2 -7 -7
-16 -10 -8 -3 -12 -2 -9 4 6 10 25 14 25 6z m1371 -13 c13 -16 12 -17 -3 -4
-10 7 -18 15 -18 17 0 8 8 3 21 -13z m-156 -33 c3 -5 1 -10 -4 -10 -6 0 -11 5
-11 10 0 6 2 10 4 10 3 0 8 -4 11 -10z m-1 -78 c3 -5 -1 -9 -9 -9 -8 0 -12 4
-9 9 3 4 7 8 9 8 2 0 6 -4 9 -8z m161 -2 c3 -5 1 -10 -4 -10 -6 0 -11 5 -11
10 0 6 2 10 4 10 3 0 8 -4 11 -10z m-325 -284 c19 -2 68 -7 108 -10 40 -3 76
-7 80 -10 4 -2 30 -7 57 -10 91 -11 224 -40 350 -76 17 -5 46 -13 65 -18 79
-22 378 -142 407 -164 7 -6 18 -6 25 -2 7 4 10 4 6 -1 -7 -8 137 -88 160 -88
6 0 10 -3 7 -6 -5 -5 79 -61 91 -61 3 0 20 -11 36 -26 17 -14 37 -23 45 -20 8
3 12 2 8 -3 -8 -13 52 -54 66 -45 7 4 9 3 6 -3 -4 -6 28 -37 71 -69 42 -33 79
-62 80 -66 2 -5 8 -8 13 -8 6 0 7 5 3 12 -4 7 -3 8 4 4 6 -4 9 -13 5 -21 -3
-8 0 -15 6 -15 6 0 70 -59 143 -132 73 -72 137 -130 143 -129 5 1 7 0 3 -4 -4
-4 33 -56 82 -116 49 -60 97 -122 106 -139 10 -16 22 -30 26 -30 4 0 8 -7 8
-15 0 -8 5 -15 10 -15 6 0 10 -4 10 -9 0 -5 12 -28 27 -50 18 -29 32 -40 42
-36 12 5 13 3 4 -6 -8 -8 -4 -24 20 -63 17 -28 49 -87 70 -131 22 -44 44 -82
49 -83 4 -2 6 -7 3 -12 -3 -5 2 -16 11 -24 8 -9 13 -16 10 -16 -4 0 22 -65 54
-135 12 -27 81 -233 90 -270 4 -16 17 -64 28 -105 12 -41 24 -98 27 -125 4
-28 9 -53 11 -56 5 -9 19 -95 29 -184 23 -195 23 -567 0 -684 -2 -10 -6 -42
-10 -72 -11 -91 -44 -259 -64 -327 -5 -18 -11 -36 -12 -40 -17 -65 -41 -149
-49 -167 -4 -11 -20 -54 -35 -95 -93 -250 -290 -599 -438 -778 -237 -284 -433
-463 -698 -638 -207 -137 -437 -250 -674 -331 -111 -38 -295 -88 -365 -98
l-45 -7 0 957 0 956 91 87 c49 48 115 110 146 139 l55 52 381 -1 380 0 28 -56
c69 -136 207 -220 360 -220 116 0 221 46 300 130 58 61 111 183 102 232 -3 15
-2 29 3 31 4 3 6 18 3 33 -12 75 -16 98 -22 107 -4 5 -7 16 -8 23 -4 25 -54
99 -91 136 -78 77 -172 117 -278 118 -114 2 -209 -37 -293 -119 -52 -51 -112
-157 -112 -198 0 -11 -4 -25 -8 -30 -5 -7 -140 -10 -402 -10 -217 1 -402 -1
-411 -4 -9 -3 -94 -80 -189 -170 -94 -91 -181 -173 -192 -183 -20 -17 -20 -21
-20 -1028 0 -555 -3 -1010 -7 -1011 -3 0 -15 -2 -26 -5 -11 -2 -71 -7 -132
-10 l-113 -7 0 1129 0 1129 31 35 c34 39 156 174 234 259 127 138 216 228 227
228 7 1 137 4 288 8 257 7 409 12 436 14 10 1 194 272 194 286 0 3 7 13 15 22
8 10 20 26 28 36 10 15 17 16 40 8 16 -6 54 -11 84 -11 63 0 176 28 167 41 -3
5 1 6 9 3 15 -5 96 51 135 95 13 14 40 59 60 100 31 65 36 85 37 155 2 85 -13
147 -54 220 -26 45 -93 116 -109 116 -7 0 -12 4 -12 9 0 13 -101 58 -146 66
-211 35 -394 -69 -468 -267 -10 -26 -15 -52 -12 -57 4 -5 2 -12 -2 -15 -14 -8
-5 -128 12 -181 21 -60 58 -124 91 -155 l24 -23 -19 -27 c-11 -16 -20 -31 -20
-33 0 -3 -25 -42 -55 -86 -30 -44 -55 -83 -55 -86 0 -3 -8 -14 -18 -25 -16
-17 -39 -19 -247 -25 -127 -4 -246 -7 -265 -8 l-35 -1 -3 196 -2 195 69 68
c39 37 68 72 64 78 -3 6 -1 7 4 4 6 -4 38 19 71 51 274 261 249 229 292 387
12 44 31 88 41 98 10 10 19 13 19 8 0 -18 104 20 165 61 149 100 216 290 160
457 -9 28 -21 49 -26 46 -5 -4 -6 1 -3 10 7 17 -32 73 -86 122 -43 40 -126 86
-140 78 -5 -3 -10 -2 -10 3 0 5 -22 14 -50 19 -33 7 -50 7 -50 0 0 -5 -6 -5
-13 2 -8 6 -17 8 -20 4 -4 -3 -20 -6 -37 -5 -17 0 -28 -2 -26 -6 2 -4 -10 -7
-28 -8 -61 -1 -146 -57 -227 -150 -26 -30 -59 -110 -70 -170 -10 -53 -5 -157
9 -178 3 -6 7 -18 9 -26 3 -24 25 -63 63 -110 47 -60 76 -85 131 -112 l45 -22
-13 -39 c-7 -21 -15 -46 -17 -55 -11 -58 -23 -81 -60 -116 -35 -32 -309 -294
-411 -392 l-32 -30 -1 -238 -2 -237 -57 -52 c-31 -29 -70 -67 -87 -86 -17 -18
-44 -48 -61 -66 -127 -136 -222 -241 -232 -254 -6 -9 -13 -14 -15 -11 -2 3
-31 64 -63 135 -32 72 -75 166 -95 210 -20 44 -74 163 -120 264 l-84 184 40
36 c22 20 73 65 114 101 41 36 81 72 90 80 8 8 31 28 50 44 19 15 53 45 75 65
22 20 74 66 116 103 l75 67 -2 143 c-3 248 -6 542 -5 558 1 9 12 17 29 18 40
3 146 59 187 99 45 43 79 97 104 163 13 33 15 50 8 50 -8 0 -8 3 0 8 12 8 19
107 10 142 -16 62 -22 80 -41 115 -26 50 -31 57 -84 111 -24 24 -50 44 -58 44
-8 0 -14 4 -14 8 0 11 -71 42 -96 42 -10 0 -26 4 -34 10 -9 6 -20 5 -29 -3
-12 -10 -13 -9 -7 2 7 11 -4 12 -61 8 -126 -10 -215 -57 -296 -155 -15 -19
-24 -39 -21 -44 4 -6 2 -8 -3 -5 -9 6 -27 -27 -33 -58 0 -3 -7 -19 -14 -37
-22 -52 -18 -173 8 -245 38 -102 102 -174 204 -224 l62 -32 1 -96 c2 -262 8
-461 14 -470 3 -6 3 -11 -2 -11 -4 0 -8 -15 -8 -33 0 -29 -14 -44 -135 -152
-129 -115 -159 -141 -206 -182 -12 -10 -50 -44 -85 -75 -125 -110 -134 -118
-149 -118 -8 0 -177 49 -374 108 l-359 108 -48 169 c-66 236 -66 233 -34 245
49 19 127 79 173 135 20 24 60 115 70 160 20 92 -3 211 -57 296 -133 206 -399
251 -599 101 -84 -63 -143 -184 -147 -302 -7 -169 85 -317 240 -385 29 -13 65
-26 79 -28 14 -1 28 -5 31 -8 3 -4 18 -55 34 -115 15 -60 47 -177 71 -260 l42
-151 91 -27 c51 -15 112 -33 137 -40 25 -8 113 -34 195 -58 83 -25 232 -69
332 -99 l182 -54 32 -70 c78 -169 101 -220 174 -380 42 -93 91 -201 109 -240
18 -38 37 -81 41 -95 6 -18 11 -2250 6 -2349 -1 -11 -20 -12 -103 -7 -57 4
-119 9 -138 12 l-35 6 0 1071 1 1072 -29 65 c-16 36 -39 88 -52 115 -12 28
-55 124 -96 215 -40 91 -82 183 -94 205 l-20 39 -454 171 -455 170 0 110 c-1
101 -3 115 -32 175 -163 344 -645 309 -764 -55 -20 -61 -15 -180 10 -248 21
-55 75 -136 109 -165 114 -94 258 -127 387 -89 63 18 85 31 147 80 l47 38 233
-86 c127 -48 255 -95 282 -106 28 -11 120 -45 205 -77 122 -46 158 -64 168
-83 18 -34 102 -219 102 -224 0 -2 18 -43 41 -92 22 -48 51 -113 64 -143 l24
-56 -1 -1038 0 -1037 -32 6 c-470 95 -919 310 -1301 626 -441 364 -794 905
-944 1449 -35 124 -77 321 -86 405 -4 33 -9 68 -11 77 -8 44 -16 225 -16 348
0 197 8 275 58 572 9 55 64 256 94 348 62 184 168 414 260 565 61 100 162 249
172 253 4 2 8 10 8 17 0 7 3 15 8 17 4 2 27 28 52 58 24 30 58 70 75 89 67 75
141 155 158 170 11 9 35 31 55 50 31 28 82 71 237 200 11 9 37 27 58 40 20 12
37 27 37 32 0 5 6 9 13 9 7 0 43 21 81 46 108 72 308 178 438 230 25 10 44 23
41 28 -4 5 -1 6 5 2 9 -5 56 9 142 41 8 3 20 7 25 9 105 32 184 55 200 58 11
2 52 11 90 20 39 9 81 18 95 20 14 3 34 7 45 9 11 3 49 8 85 12 36 4 67 8 70
10 3 2 55 6 115 10 60 3 111 7 112 8 4 4 297 -2 333 -7z m850 -36 c0 -5 -5
-10 -11 -10 -5 0 -7 5 -4 10 3 6 8 10 11 10 2 0 4 -4 4 -10z m-190 -34 c0 -2
-8 -10 -17 -17 -16 -13 -17 -12 -4 4 13 16 21 21 21 13z m150 0 c0 -3 -4 -8
-10 -11 -5 -3 -10 -1 -10 4 0 6 5 11 10 11 6 0 10 -2 10 -4z m351 -53 c13 -16
12 -17 -3 -4 -10 7 -18 15 -18 17 0 8 8 3 21 -13z m53 -31 c3 -5 -1 -9 -9 -9
-8 0 -12 4 -9 9 3 4 7 8 9 8 2 0 6 -4 9 -8z m717 -239 c13 -16 12 -17 -3 -4
-10 7 -18 15 -18 17 0 8 8 3 21 -13z m-90 -10 c13 -16 12 -17 -3 -4 -10 7 -18
15 -18 17 0 8 8 3 21 -13z m249 13 c0 -2 -7 -7 -16 -10 -8 -3 -12 -2 -9 4 6
10 25 14 25 6z m117 -91 c0 -8 -4 -12 -9 -9 -5 3 -6 10 -3 15 9 13 12 11 12
-6z m157 -113 c3 -5 -1 -9 -9 -9 -8 0 -12 4 -9 9 3 4 7 8 9 8 2 0 6 -4 9 -8z
m-354 -26 c0 -2 -8 -10 -17 -17 -16 -13 -17 -12 -4 4 13 16 21 21 21 13z m130
-50 c0 -2 -8 -10 -17 -17 -16 -13 -17 -12 -4 4 13 16 21 21 21 13z m-133 -81
c0 -8 -4 -12 -9 -9 -5 3 -6 10 -3 15 9 13 12 11 12 -6z m476 0 c-3 -9 -8 -14
-10 -11 -3 3 -2 9 2 15 9 16 15 13 8 -4z m-2463 -25 c31 -9 134 -80 116 -80
-4 0 3 -14 15 -31 33 -46 32 -158 -1 -217 -13 -23 -27 -42 -32 -42 -4 0 -8 -8
-8 -17 0 -9 -3 -13 -6 -10 -4 4 -20 -4 -35 -18 -44 -37 -148 -44 -221 -16 -33
13 -86 68 -110 115 -27 52 -28 136 -3 191 10 22 17 45 16 50 -2 6 1 7 4 3 4
-4 16 4 27 17 42 54 153 79 238 55z m2421 -67 c13 -16 12 -17 -3 -4 -10 7 -18
15 -18 17 0 8 8 3 21 -13z m-196 -62 c3 -5 2 -12 -3 -15 -5 -3 -9 1 -9 9 0 17
3 19 12 6z m-80 -10 c3 -5 2 -12 -3 -15 -5 -3 -9 1 -9 9 0 17 3 19 12 6z m165
5 c0 -3 -4 -8 -10 -11 -5 -3 -10 -1 -10 4 0 6 5 11 10 11 6 0 10 -2 10 -4z
m-1278 -321 c36 -18 90 -72 103 -101 17 -39 19 -51 19 -114 1 -72 -22 -122
-78 -171 -28 -26 -85 -49 -120 -49 -9 0 -16 -6 -16 -12 0 -8 -3 -9 -8 -3 -4 6
-20 11 -37 13 -83 9 -171 88 -191 172 -29 122 42 242 166 281 37 11 124 2 162
-16z m-2666 -80 c39 -18 89 -66 108 -104 18 -34 35 -127 26 -138 -4 -4 -12
-26 -18 -49 -14 -47 -71 -109 -122 -131 -45 -20 -135 -20 -180 -1 -121 53
-176 198 -119 311 11 21 17 42 14 48 -4 5 -3 8 2 7 4 -2 24 9 44 25 72 55 170
68 245 32z m2458 -363 c3 -5 -1 -9 -9 -9 -8 0 -12 4 -9 9 3 4 7 8 9 8 2 0 6
-4 9 -8z m717 -458 c38 -24 90 -84 97 -113 15 -56 13 -142 -4 -177 -38 -80
-127 -138 -214 -139 -14 0 -31 -4 -39 -9 -9 -6 -12 -5 -7 2 3 6 -9 15 -30 22
-44 15 -96 59 -126 108 -29 48 -32 160 -4 211 35 65 90 108 161 125 41 9 129
-6 166 -30z m-3656 -275 c112 -56 158 -194 104 -306 -53 -110 -198 -160 -306
-105 -84 43 -127 113 -127 207 0 102 58 182 155 215 61 21 117 17 174 -11z
m3947 -892 c57 -24 113 -90 128 -150 47 -196 -148 -354 -326 -265 -109 54
-158 194 -105 300 31 63 53 85 112 112 58 28 129 29 191 3z"/>
</g>
</svg>
